{"title":"Eldorado 2012 DVDRip XviD-SPRiNTER","uid":7068994,"size":1466899575,"categoryP":"video","categoryS":"movies","magnet":"?xt=urn:btih:16cd885593500c558d6fac011380086a00a5cfe2&amp;dn=Eldorado+2012+DVDRip+XviD-SPRiNTER&amp;tr=udp%3A%2F%2Ftracker.openbittorrent.com%3A80&amp;tr=udp%3A%2F%2Fopen.demonii.com%3A1337&amp;tr=udp%3A%2F%2Ftracker.coppersurfer.tk%3A6969&amp;tr=udp%3A%2F%2Fexodus.desync.com%3A6969","seeders":0,"leechers":0,"uploader":"MisterNobody","files":5,"time":1330602256,"description":"Format: AVI\nFormat/Info: Audio Video Interleave\nFile size: 1.37 GiB\nDuration: 1h 55mn\nOverall bit rate: 1 694 Kbps\nWriting application: VirtualDubMod 1.5.10.2 (build 2540/release)\nWriting library: VirtualDubMod build 2540/release\n\nVideo\nID: 0\nFormat: MPEG-4 Visual\nFormat profile: Advanced Simple@L5\nFormat settings, BVOP: 2\nFormat settings, QPel: No\nFormat settings, GMC: No warppoints\nFormat settings, Matrix: Default (H.263)\nCodec ID: XVID\nCodec ID/Hint: XviD\nDuration: 1h 55mn\nBit rate: 1 236 Kbps\nWidth: 640 pixels\nHeight: 352 pixels\nDisplay aspect ratio: 16:9\nFrame rate: 25.000 fps\nColor space: YUV\nChroma subsampling: 4:2:0\nBit depth: 8 bits\nScan type: Progressive\nCompression mode: Lossy\nBits/(Pixel*Frame): 0.220\nStream size: 1 020 MiB (73%)\nWriting library: XviD 61\n\nAudio\nID: 1\nFormat: AC-3\nFormat/Info: Audio Coding 3\nMode extension: CM (complete main)\nCodec ID: 2000\nDuration: 1h 55mn\nBit rate mode: Constant\nBit rate: 448 Kbps\nChannel(s): 6 channels\nChannel positions: Front: L C R, Side: L R, LFE\nSampling rate: 48.0 KHz\nBit depth: 16 bits\nCompression mode: Lossy\nStream size: 370 MiB (26%)\nAlignment: Split accross interleaves\nInterleave, duration: 40 ms (1.00 video frame)\nInterleave, preload duration: 500 ms","torrent":{"xt":"urn:btih:16cd885593500c558d6fac011380086a00a5cfe2","amp;dn":"Eldorado+2012+DVDRip+XviD-SPRiNTER","amp;tr":["udp%3A%2F%2Ftracker.openbittorrent.com%3A80","udp%3A%2F%2Fopen.demonii.com%3A1337","udp%3A%2F%2Ftracker.coppersurfer.tk%3A6969","udp%3A%2F%2Fexodus.desync.com%3A6969"],"infoHash":"16cd885593500c558d6fac011380086a00a5cfe2","infoHashBuffer":{"type":"Buffer","data":[22,205,136,85,147,80,12,85,141,111,172,1,19,128,8,106,0,165,207,226]},"announce":[],"urlList":[]}}